<svg t="1713958073333" class="icon" viewBox="0 0 1741 1024" version="1.1" xmlns="http://www.w3.org/2000/svg" p-id="1900" width="128" height="128"><path d="M1686.450313 657.292016C1584.691192 859.716074 1285.509998 1000.396886 832.517784 1000.396886S109.418409 794.065028 29.230347 581.949626A169.598535 169.598535 0 0 1 67.370478 422.042436c50.645092-49.70722 87.69104-10.941841 141.931308-57.991757 57.210197-48.769348 33.919707-143.494428 106.604793-190.544344 58.304381-37.827507 140.680812 10.160281 211.333842-15.631201C625.248054 122.392307 639.472447 23.134178 752.173409 23.134178 859.716074 23.134178 904.890246 102.228057 937.872081 106.292169c66.119982 7.659289 83.314303-82.845367 209.301786-42.204243 82.532743 26.573042 95.037704 107.542665 139.586628 130.989467 57.679133 30.480843 113.013586-26.573042 159.907189 11.254465 57.210197 46.893604 53.458709 130.989467 90.660968 182.259807 32.981835 45.174172 120.985498-7.346665 158.813006 72.059839 40.641123 85.190047 16.569073 143.494428-10.003969 196.640512z" fill="#CE111B" p-id="1901"></path><path d="M832.517784 1024c-212.584338 0-403.597619-46.893604-552.875592-133.177835C148.965349 814.541902 52.364525 707.624485 7.815601 589.765227A191.638528 191.638528 0 0 1 51.582964 406.411235a123.799115 123.799115 0 0 1 84.5648-36.733323 90.192032 90.192032 0 0 0 58.929629-22.196306c20.94581-18.132194 28.917722-45.174172 37.827507-76.749199 11.567089-40.172187 24.697298-85.658983 71.121966-115.983514 38.140131-24.697298 81.751183-19.851626 123.955427-15.631201 32.981835 3.595176 64.40055 7.190353 91.911464-2.813616a233.061212 233.061212 0 0 0 85.502671-62.524806C640.879255 37.827507 678.55045 0 753.111281 0c79.093879 0 127.550603 38.452755 159.907189 63.775301a116.765074 116.765074 0 0 0 28.761411 19.226378c17.038009 1.875744 29.230347-5.47092 49.70722-18.913753 32.669211-21.414746 77.218135-50.332468 164.283926-22.196306 56.741261 18.288506 84.564799 58.617005 106.604793 91.286215a123.642803 123.642803 0 0 0 36.264388 41.11006c20.789498 11.098153 41.89162 6.408793 66.276293 1.250496 28.76141-6.096169 64.713174-13.755457 97.382385 12.504961C1500.595329 218.836819 1516.22653 265.730423 1527.949931 305.589986A247.910853 247.910853 0 0 0 1556.867654 375.148832c7.346665 10.160281 22.665242 11.723401 46.893604 12.973897 36.420699 2.032056 86.440543 5.158296 113.638834 62.524806 44.2363 93.787208 18.913754 158.187758-10.472905 217.117386C1594.382537 890.978477 1267.534117 1024 832.517784 1024zM376.086704 181.321936a86.127919 86.127919 0 0 0-46.893604 11.567089c-32.043963 20.789498-41.266372 53.146085-51.895588 90.348343s-20.476874 71.590902-51.895589 98.632881A135.522516 135.522516 0 0 1 140.680812 414.852084a80.344375 80.344375 0 0 0-57.366509 23.915738 147.558541 147.558541 0 0 0-32.981835 135.209891c70.496718 186.480232 317.782323 404.535491 781.560067 404.535491 417.6657 0 729.351855-123.955427 833.455656-331.225156l20.476874 10.316593-20.476874-10.316593c26.573042-52.520837 45.486796-102.384369 10.003969-177.101512-15.631201-31.262403-38.452755-34.857579-75.029766-37.045947-28.448786-1.719432-60.805373-3.595176-81.282247-31.262402a270.888719 270.888719 0 0 1-35.63914-82.063808c-11.723401-37.514883-22.665242-72.685086-50.801404-95.50664-15.631201-12.192337-31.262403-9.535033-59.085941-3.438864s-62.524805 13.130209-97.226072-5.47092a154.905205 154.905205 0 0 1-52.677149-55.803389C1203.602503 129.426347 1183.281942 99.258129 1141.077698 85.502671c-66.119982-21.414746-94.881392-2.813616-125.049611 17.03801-21.414746 14.068081-45.79942 30.011907-80.031751 25.947794a110.512593 110.512593 0 0 1-51.582964-28.605098c-31.262403-24.228362-68.777286-54.083957-131.927339-54.083957-55.178141 0-81.751183 26.885666-115.358266 60.492749a273.077087 273.077087 0 0 1-102.071745 73.154022c-37.514883 14.068081-78.156007 9.535033-112.54465 5.627233a415.32102 415.32102 0 0 0-46.424668-3.751488z" fill="#FFE045" p-id="1902"></path><path d="M215.241642 674.955274C215.08533 845.647993 508.170356 984.765685 870.032667 984.765685s655.25996-138.805068 655.416272-309.497787c0-170.536407-293.085025-308.872539-654.947336-309.028851s-655.25996 138.023508-655.259961 308.716227z" fill="#FF2528" p-id="1903"></path><path d="M832.517784 1024c-212.584338 0-403.597619-46.893604-552.875592-133.177835C148.965349 814.541902 52.364525 707.624485 7.815601 589.765227A191.638528 191.638528 0 0 1 51.582964 406.411235a123.799115 123.799115 0 0 1 84.5648-36.733323 90.192032 90.192032 0 0 0 58.929629-22.196306c20.94581-18.132194 28.917722-45.174172 37.827507-76.749199 11.567089-40.172187 24.697298-85.658983 71.121966-115.983514 38.140131-24.697298 81.751183-19.851626 123.955427-15.631201 32.981835 3.595176 64.40055 7.190353 91.911464-2.813616a233.061212 233.061212 0 0 0 85.502671-62.524806C640.879255 37.827507 678.55045 0 753.111281 0c79.093879 0 127.550603 38.452755 159.907189 63.775301a116.765074 116.765074 0 0 0 28.761411 19.226378c17.038009 1.875744 29.230347-5.47092 49.70722-18.913753 32.669211-21.414746 77.218135-50.332468 164.283926-22.196306 56.741261 18.288506 84.564799 58.617005 106.604793 91.286215a123.642803 123.642803 0 0 0 36.264388 41.11006c20.789498 11.098153 41.89162 6.408793 66.276293 1.250496 28.76141-6.096169 64.713174-13.755457 97.382385 12.504961C1500.595329 218.836819 1516.22653 265.730423 1527.949931 305.589986A247.910853 247.910853 0 0 0 1556.867654 375.148832c7.346665 10.160281 22.665242 11.723401 46.893604 12.973897 36.420699 2.032056 86.440543 5.158296 113.638834 62.524806 44.2363 93.787208 18.913754 158.187758-10.472905 217.117386C1594.382537 890.978477 1267.534117 1024 832.517784 1024zM376.086704 181.321936a86.127919 86.127919 0 0 0-46.893604 11.567089c-32.043963 20.789498-41.266372 53.146085-51.895588 90.348343s-20.476874 71.590902-51.895589 98.632881A135.522516 135.522516 0 0 1 140.680812 414.852084a80.344375 80.344375 0 0 0-57.366509 23.915738 147.558541 147.558541 0 0 0-32.981835 135.209891c70.496718 186.480232 317.782323 404.535491 781.560067 404.535491 417.6657 0 729.351855-123.955427 833.455656-331.225156l20.476874 10.316593-20.476874-10.316593c26.573042-52.520837 45.486796-102.384369 10.003969-177.101512-15.631201-31.262403-38.452755-34.857579-75.029766-37.045947-28.448786-1.719432-60.805373-3.595176-81.282247-31.262402a270.888719 270.888719 0 0 1-35.63914-82.063808c-11.723401-37.514883-22.665242-72.685086-50.801404-95.50664-15.631201-12.192337-31.262403-9.535033-59.085941-3.438864s-62.524805 13.130209-97.226072-5.47092a154.905205 154.905205 0 0 1-52.677149-55.803389C1203.602503 129.426347 1183.281942 99.258129 1141.077698 85.502671c-66.119982-21.414746-94.881392-2.813616-125.049611 17.03801-21.414746 14.068081-45.79942 30.011907-80.031751 25.947794a110.512593 110.512593 0 0 1-51.582964-28.605098c-31.262403-24.228362-68.777286-54.083957-131.927339-54.083957-55.178141 0-81.751183 26.885666-115.358266 60.492749a273.077087 273.077087 0 0 1-102.071745 73.154022c-37.514883 14.068081-78.156007 9.535033-112.54465 5.627233a415.32102 415.32102 0 0 0-46.424668-3.751488z" fill="#FFE045" p-id="1904"></path><path d="M1307.549992 472.218593a21.72737 21.72737 0 0 1-11.567089-2.969929C969.134483 275.109144 493.633338 436.579454 488.787666 437.673638a22.821554 22.821554 0 0 1-29.074034-14.068082 23.134178 23.134178 0 0 1 14.068081-29.074034 1399.461456 1399.461456 0 0 1 290.584033-59.554877c153.029461-15.631201 373.742024-12.348649 554.751335 95.194016a22.50893 22.50893 0 0 1-11.567089 42.047932z" fill="#FFE045" p-id="1905"></path><path d="M467.998168 880.818196c0 49.394596 180.227751 89.410472 402.659747 89.410471s402.659747-40.015875 402.659746-89.410471-180.227751-89.566784-402.659746-89.566784-402.659747 40.172187-402.659747 89.566784z" fill="#CE111B" p-id="1906"></path></svg>